<?xml version="1.0" encoding="utf-8"?>
<!-- Generator: Adobe Illustrator 16.0.0, SVG Export Plug-In . SVG Version: 6.00 Build 0)  -->
<!DOCTYPE svg PUBLIC "-//W3C//DTD SVG 1.1//EN" "http://www.w3.org/Graphics/SVG/1.1/DTD/svg11.dtd">
<svg version="1.1" id="Layer_1" xmlns="http://www.w3.org/2000/svg" xmlns:xlink="http://www.w3.org/1999/xlink" x="0px" y="0px"
	 width="190.99px" height="55.788px" viewBox="0 0 190.99 55.788" enable-background="new 0 0 190.99 55.788" xml:space="preserve">
<g>
	<g>
		<linearGradient id="SVGID_1_" gradientUnits="userSpaceOnUse" x1="95.4961" y1="-2.9941" x2="95.4961" y2="115.2992">
			<stop  offset="0" style="stop-color:#FFFFFF"/>
			<stop  offset="1" style="stop-color:#000000"/>
		</linearGradient>
		<path fill="url(#SVGID_1_)" enable-background="new    " d="M162.051,19.144c-0.006-1.045-0.855-1.889-1.9-1.889h-0.064
			l-0.25-0.961c-0.107-0.452-0.244-0.875-0.408-1.258c-0.1-0.232-0.211-0.453-0.33-0.657c0.205-0.19,0.391-0.389,0.555-0.592
			c0.105-0.126,0.201-0.255,0.289-0.38c0.293-0.412,0.533-0.871,0.719-1.373c0.059-0.161,0.111-0.326,0.146-0.463
			c0.051-0.168,0.094-0.346,0.131-0.528c0.035-0.173,0.064-0.353,0.09-0.54c0.043-0.354,0.066-0.731,0.066-1.124
			c0-0.949-0.195-1.874-0.572-2.727c-0.092-0.22-0.197-0.433-0.311-0.639c-0.117-0.212-0.244-0.413-0.377-0.602
			c-0.137-0.196-0.287-0.385-0.453-0.573c-0.156-0.177-0.32-0.346-0.49-0.5c-0.693-0.65-1.543-1.17-2.527-1.545
			c-0.244-0.094-0.502-0.176-0.771-0.248c-0.512-0.137-1.059-0.229-1.623-0.273c-0.273-0.022-0.559-0.033-0.854-0.033h-9.863
			c-0.398,0-0.764,0.122-1.07,0.33c-0.303-0.208-0.672-0.33-1.068-0.33h-14.836c-0.553,0-1.049,0.24-1.395,0.619
			c-0.348-0.379-0.844-0.619-1.398-0.619h-7.992c-1.051,0-1.9,0.85-1.9,1.9v3.382c0,1.05,0.85,1.901,1.9,1.901h0.043v0.074h-4.613
			V9.423h0.068c1.051,0,1.9-0.852,1.9-1.901V4.14c0-1.051-0.85-1.9-1.9-1.9h-7.982c-0.328,0-0.627,0.09-0.898,0.234
			c-0.266-0.145-0.57-0.234-0.896-0.234H84.252c-0.156,0-0.307,0.023-0.449,0.059c-0.145-0.035-0.295-0.059-0.451-0.059H76.27
			c-1.051,0-1.9,0.85-1.9,1.9v3.133L71.75,3.125c-0.348-0.552-0.955-0.886-1.607-0.886h-5.631c-1.051,0-1.9,0.85-1.9,1.9v3.382
			c0,0.917,0.648,1.682,1.512,1.86v8.168c-0.172,0.033-0.328,0.094-0.48,0.17c-0.246-0.123-0.521-0.201-0.814-0.204L58.285,3.552
			c-0.254-0.783-0.982-1.312-1.805-1.312h-4.936c-0.818,0-1.545,0.523-1.801,1.301l-1.867,5.611
			c-0.025-0.342-0.066-0.681-0.145-1.012c-0.059-0.244-0.131-0.488-0.217-0.725c-0.086-0.237-0.188-0.474-0.297-0.696
			c-0.111-0.226-0.234-0.446-0.365-0.651c-0.389-0.623-0.879-1.195-1.455-1.697c-0.756-0.66-1.654-1.185-2.662-1.555
			c-0.256-0.097-0.52-0.182-0.789-0.255c-0.527-0.142-1.086-0.239-1.664-0.287c-0.281-0.022-0.566-0.034-0.857-0.034h-8.611
			c-1.049,0-1.898,0.85-1.898,1.9v3.382c0,1.05,0.85,1.901,1.898,1.901h0.031v8.092h-0.031c-1.049,0-1.898,0.852-1.898,1.9v3.37
			c0,1.05,0.85,1.899,1.898,1.899h7.725c1.049,0,1.9-0.85,1.9-1.899v-3.37c0-0.711-0.389-1.33-0.967-1.655
			c0.646-0.002,1.266-0.05,1.844-0.144c0.619-0.102,1.205-0.258,1.744-0.469c0.266-0.105,0.52-0.219,0.76-0.34
			c0.748-0.383,1.41-0.863,1.967-1.436c0.014-0.013,0.021-0.027,0.035-0.041l-0.727,2.184h-0.018c-1.051,0-1.9,0.852-1.9,1.9v3.37
			c0,1.05,0.85,1.899,1.9,1.899h7.07c0.826,0,1.527-0.524,1.791-1.259c0.262,0.734,0.963,1.259,1.789,1.259h7.072
			c0.305,0,0.588-0.076,0.842-0.205c0.256,0.129,0.539,0.205,0.844,0.205h7.072c1.049,0,1.9-0.85,1.9-1.899v-3.167l2.701,4.195
			c0.35,0.544,0.951,0.871,1.598,0.871h4.084c1.049,0,1.9-0.85,1.9-1.899V11.632c0.162,0.046,0.332,0.078,0.51,0.078h4.01
			c0.123,0,0.244-0.012,0.361-0.035v5.84h-0.029c-1.051,0-1.9,0.852-1.9,1.9v3.37c0,1.05,0.85,1.899,1.9,1.899h7.982
			c1.049,0,1.9-0.85,1.9-1.899v-3.37c0-1.049-0.852-1.9-1.9-1.9h-0.068v-5.927c0.207,0.079,0.434,0.122,0.668,0.122h4.037
			c0.875,0,1.605-0.597,1.824-1.404v7.209h-0.029c-1.051,0-1.9,0.852-1.9,1.9v3.37c0,1.05,0.85,1.899,1.9,1.899h7.982
			c1.051,0,1.9-0.85,1.9-1.899v-3.37c0-1.049-0.85-1.9-1.9-1.9h-0.068v-0.972h4.613v0.972h-0.043c-1.051,0-1.9,0.852-1.9,1.9v3.37
			c0,1.05,0.85,1.899,1.9,1.899h7.992c0.555,0,1.051-0.24,1.398-0.619c0.346,0.379,0.842,0.619,1.395,0.619h14.836
			c0.396,0,0.766-0.121,1.068-0.33c0.307,0.209,0.672,0.33,1.07,0.33h7.723c0.99,0,1.805-0.756,1.893-1.723l0.023,0.137
			c0.152,0.916,0.945,1.586,1.875,1.586h5.41c0.506,0,0.992-0.201,1.35-0.56c0.355-0.36,0.555-0.847,0.551-1.353L162.051,19.144z
			 M38.73,9.427c0.088,0.004,0.17,0.012,0.244,0.021c0.121,0.016,0.23,0.037,0.312,0.061c0.068,0.021,0.127,0.045,0.174,0.069
			c0.004,0.003,0.066,0.042,0.072,0.044c0.004,0.004,0.066,0.08,0.072,0.084c0.004,0.008,0.014,0.029,0.025,0.069
			c0.006,0.021,0.012,0.042,0.016,0.065c0.006,0.033,0.01,0.065,0.014,0.1c0.002,0.041,0.004,0.084,0.004,0.127
			c0,0.051-0.002,0.099-0.006,0.148c-0.01,0.123-0.031,0.176-0.023,0.176c-0.086,0.062-0.203,0.113-0.346,0.15
			c-0.16,0.042-0.348,0.068-0.559,0.079V9.427z M75.955,9.396v0.389l-0.291-0.461C75.758,9.355,75.855,9.379,75.955,9.396z
			 M71.896,17.546v-0.354l0.271,0.423C72.08,17.586,71.988,17.562,71.896,17.546z M151.166,9.423h0.549
			c0.172,0,0.338,0.008,0.492,0.023c0.223,0.025,0.371,0.067,0.467,0.103c0.031,0.011,0.059,0.024,0.076,0.032
			c0.023,0.012,0.045,0.023,0.062,0.035c0.004,0.004,0.037,0.055,0.041,0.059c0.004,0.02,0.01,0.062,0.01,0.135
			c0,0.033-0.002,0.066-0.012,0.132c-0.031,0.021-0.123,0.074-0.297,0.116c-0.227,0.051-0.512,0.076-0.84,0.076h-0.549V9.423z
			 M135.201,16.997v0.518h-0.982v-0.518H135.201z M124.883,18.136c-0.348-0.379-0.844-0.621-1.398-0.621h-0.066V9.423h0.066
			c0.479,0,0.91-0.184,1.244-0.475c0.344,0.486,0.908,0.805,1.549,0.805h0.057v7.762h-0.057
			C125.725,17.515,125.229,17.757,124.883,18.136z M143.012,17.539v-1.433c0-1.049-0.85-1.9-1.898-1.9h-3.193v-1.809h3.193
			c1.049,0,1.898-0.85,1.898-1.899V9.397c0.08,0.01,0.158,0.025,0.24,0.025h0.029v8.092h-0.029
			C143.17,17.515,143.092,17.529,143.012,17.539z M151.166,17.524v-0.256c0.207,0.018,0.34,0.05,0.412,0.073
			c0.068,0.021,0.121,0.047,0.184,0.097c0.01,0.01,0.045,0.055,0.055,0.062c0.002,0.006,0.041,0.072,0.045,0.078
			c0.018,0.034,0.031,0.069,0.062,0.151c0.008,0.016,0.014,0.032,0.021,0.05C151.715,17.643,151.449,17.553,151.166,17.524z"/>
		<g>
			<linearGradient id="SVGID_2_" gradientUnits="userSpaceOnUse" x1="47.1279" y1="-2.9927" x2="47.1279" y2="115.2956">
				<stop  offset="0" style="stop-color:#FFFFFF"/>
				<stop  offset="1" style="stop-color:#000000"/>
			</linearGradient>
			<path fill="url(#SVGID_2_)" d="M67.381,43.94L62.77,29.767c-0.256-0.783-0.984-1.312-1.807-1.312h-5
				c-0.818,0-1.545,0.524-1.803,1.301L49.443,43.94h-0.039c-0.318,0-0.615,0.084-0.879,0.225c-0.264-0.141-0.559-0.225-0.879-0.225
				h-0.096v-8.258h0.096c1.049,0,1.9-0.85,1.9-1.9v-3.428c0-1.05-0.852-1.9-1.9-1.9h-8.104c-1.051,0-1.902,0.851-1.902,1.9v3.428
				c0,1.051,0.852,1.9,1.902,1.9h0.068v0.127h-4.729v-0.127h0.096c1.051,0,1.9-0.85,1.9-1.9v-3.428c0-1.05-0.85-1.9-1.9-1.9h-8.092
				c-1.049,0-1.9,0.851-1.9,1.9v3.428c0,1.051,0.852,1.9,1.9,1.9h0.057v8.258h-0.057c-1.049,0-1.9,0.85-1.9,1.9v3.416
				c0,1.049,0.852,1.9,1.9,1.9h8.092c1.051,0,1.9-0.852,1.9-1.9v-3.416c0-1.051-0.85-1.9-1.9-1.9h-0.096v-1.037h4.729v1.037h-0.068
				c-1.051,0-1.902,0.85-1.902,1.9v3.416c0,1.049,0.852,1.9,1.902,1.9h8.104c0.32,0,0.615-0.086,0.879-0.227
				c0.264,0.141,0.561,0.227,0.879,0.227h7.17c0.852,0,1.572-0.561,1.814-1.334c0.24,0.773,0.963,1.334,1.812,1.334h7.17
				c1.049,0,1.898-0.852,1.898-1.9v-3.416C69.27,44.793,68.426,43.944,67.381,43.94z"/>
			<linearGradient id="SVGID_3_" gradientUnits="userSpaceOnUse" x1="128.8252" y1="-2.9932" x2="128.8252" y2="115.2954">
				<stop  offset="0" style="stop-color:#FFFFFF"/>
				<stop  offset="1" style="stop-color:#000000"/>
			</linearGradient>
			<path fill="url(#SVGID_3_)" d="M166.004,36.775v-3.765c0-1.049-0.85-1.9-1.9-1.9h-0.186c-0.152-0.203-0.318-0.397-0.496-0.582
				c-0.127-0.139-0.26-0.273-0.398-0.399c-0.133-0.124-0.275-0.243-0.426-0.36c-0.146-0.117-0.301-0.229-0.465-0.338
				c-0.158-0.105-0.324-0.209-0.471-0.291c-0.17-0.101-0.348-0.193-0.525-0.281c-0.348-0.17-0.711-0.316-1.123-0.455
				c-0.191-0.062-0.387-0.121-0.561-0.166c-0.207-0.059-0.42-0.109-0.65-0.154c-0.213-0.043-0.432-0.078-0.648-0.105
				c-0.432-0.056-0.887-0.084-1.355-0.084c-1.162,0-2.256,0.153-3.258,0.455c-1.055,0.32-1.986,0.805-2.771,1.438
				c-0.617,0.494-1.137,1.087-1.555,1.764c-0.133,0.221-0.258,0.449-0.363,0.678c-0.053,0.107-0.092,0.225-0.137,0.338
				c-0.051-0.1-0.094-0.204-0.145-0.297c-0.117-0.213-0.248-0.418-0.387-0.614c-0.275-0.392-0.6-0.759-0.945-1.077
				c-0.18-0.169-0.369-0.329-0.57-0.48c-0.58-0.438-1.25-0.801-1.986-1.082c-0.979-0.371-2.084-0.561-3.281-0.561h-10
				c-0.404,0-0.777,0.129-1.086,0.343c-0.307-0.214-0.68-0.343-1.084-0.343h-15.037c-0.379,0-0.73,0.113-1.029,0.307
				c-0.295-0.193-0.646-0.307-1.027-0.307h-6.447c-1.047,0-1.898,0.851-1.898,1.9v2.79l-0.252,0.218v-3.008c0-1.05-0.85-1.9-1.9-1.9
				h-8.092c-1.051,0-1.9,0.851-1.9,1.9v3.428c0,1.051,0.85,1.9,1.9,1.9h0.057v8.258h-0.057c-1.051,0-1.9,0.85-1.9,1.9v3.416
				c0,1.049,0.85,1.9,1.9,1.9h8.092c1.051,0,1.9-0.852,1.9-1.9v-3.205l0.289,0.287v2.918c0,1.049,0.85,1.9,1.9,1.9H112
				c0.41,0,0.787-0.133,1.098-0.354c0.311,0.221,0.688,0.354,1.096,0.354h15.037c0.404,0,0.777-0.127,1.084-0.342
				c0.309,0.215,0.682,0.342,1.086,0.342h7.83c1.051,0,1.9-0.852,1.9-1.9v-0.08l0.066,0.393c0.152,0.916,0.945,1.588,1.873,1.588
				h5.486c0.506,0,0.992-0.203,1.35-0.561c0.355-0.359,0.555-0.846,0.551-1.352l-0.002-0.33c0.262,0.277,0.547,0.535,0.84,0.768
				c0.307,0.24,0.635,0.461,0.977,0.658c0.174,0.102,0.355,0.197,0.527,0.279c0.182,0.09,0.367,0.17,0.559,0.246
				c0.189,0.074,0.383,0.145,0.58,0.207c0.191,0.061,0.385,0.115,0.566,0.16c0.797,0.205,1.65,0.309,2.531,0.309
				c0.307,0,0.607-0.012,0.9-0.033c0.301-0.021,0.596-0.055,0.873-0.102c0.578-0.092,1.143-0.232,1.678-0.424
				c0.535-0.186,1.039-0.416,1.492-0.678c0.232-0.133,0.465-0.285,0.688-0.445c0.221-0.158,0.432-0.328,0.633-0.506
				c0.4-0.357,0.764-0.759,1.082-1.198c0.314-0.434,0.584-0.905,0.795-1.386c0.451-1.002,0.682-2.107,0.682-3.287
				c0-0.213-0.01-0.416-0.021-0.625c-0.031-0.416-0.088-0.821-0.176-1.199c-0.045-0.197-0.098-0.391-0.16-0.58
				c-0.115-0.363-0.258-0.713-0.42-1.033c-0.168-0.332-0.363-0.65-0.566-0.926c-0.111-0.154-0.229-0.303-0.352-0.445
				C165.186,38.646,166.004,37.806,166.004,36.775z M156.406,43.782c-0.037-0.012-0.07-0.027-0.105-0.045
				c-0.062-0.027-0.111-0.061-0.143-0.088c-0.018-0.02-0.037-0.041-0.059-0.075c-0.012-0.017-0.021-0.038-0.023-0.038
				s0,0.002,0,0.002c-0.006-0.014-0.01-0.029-0.016-0.047l0.441,0.144c0.207,0.067,0.418,0.141,0.627,0.218
				c-0.029,0-0.061,0-0.094,0c-0.15,0-0.287-0.008-0.428-0.029c-0.045-0.008-0.09-0.016-0.133-0.025
				C156.441,43.79,156.41,43.782,156.406,43.782L156.406,43.782z M148.297,39.735c0.201-0.283,0.377-0.586,0.523-0.9
				c0.016-0.033,0.027-0.067,0.041-0.102c0.008,0.013,0.012,0.027,0.018,0.039c0.18,0.373,0.391,0.73,0.623,1.059
				c0.119,0.168,0.244,0.33,0.389,0.5c0.047,0.053,0.092,0.104,0.141,0.154h-0.428c-0.783,0-1.455,0.475-1.744,1.152
				c-0.111-0.285-0.232-0.564-0.373-0.814c-0.018-0.032-0.037-0.062-0.055-0.094c0.209-0.195,0.404-0.4,0.578-0.615
				C148.117,39.983,148.221,39.847,148.297,39.735z M123.266,43.364v0.576h-1.049v-0.576H123.266z M113.301,44.173
				c-0.34-0.32-0.795-0.52-1.301-0.52h-0.74l-4.045-4.095l4.219-3.627h0.703c0.352,0,0.678-0.101,0.959-0.268
				c0.311,0.222,0.689,0.355,1.098,0.355h0.084v7.921h-0.084C113.869,43.94,113.568,44.028,113.301,44.173z M131.131,43.968v-1.481
				c0-1.05-0.852-1.901-1.9-1.901h-3.26V38.7h3.26c1.049,0,1.9-0.85,1.9-1.899v-1.146c0.088,0.014,0.178,0.027,0.27,0.027h0.057
				v8.258H131.4C131.309,43.94,131.219,43.955,131.131,43.968z M139.398,43.948v-0.312c0.057,0.004,0.113,0.012,0.17,0.018
				c0.131,0.018,0.221,0.04,0.283,0.062c0.049,0.015,0.09,0.031,0.129,0.056c0.025,0.014,0.047,0.029,0.084,0.065l0.051,0.065
				c0.014,0.02,0.023,0.042,0.031,0.055c0.02,0.041,0.037,0.082,0.07,0.166c0.016,0.038,0.031,0.078,0.047,0.123
				C140.012,44.08,139.715,43.976,139.398,43.948z"/>
		</g>
		<linearGradient id="SVGID_4_" gradientUnits="userSpaceOnUse" x1="80.459" y1="-2.9932" x2="80.459" y2="115.296">
			<stop  offset="0" style="stop-color:#FFFFFF"/>
			<stop  offset="1" style="stop-color:#000000"/>
		</linearGradient>
		<path fill="url(#SVGID_4_)" d="M91.799,38.155h-3.736l5.582-5.582c0.355-0.355,0.557-0.84,0.557-1.343
			c0-0.504-0.201-0.987-0.557-1.345l-3.266-3.264c-0.373-0.371-0.859-0.557-1.344-0.557c-0.486,0-0.973,0.186-1.344,0.557
			l-5.582,5.581v-3.736c0-1.05-0.852-1.899-1.9-1.899c-7.439,0-13.492,6.051-13.492,13.49c0,7.437,6.053,13.488,13.492,13.488
			c7.438,0,13.49-6.052,13.49-13.488C93.699,39.007,92.848,38.155,91.799,38.155z M80.209,45.128c-2.844,0-5.072-2.229-5.072-5.07
			c0-2.51,1.734-4.532,4.094-4.977l-2.262,2.262c-0.355,0.357-0.557,0.841-0.557,1.344c0,0.505,0.201,0.988,0.557,1.344l3.266,3.266
			c0.355,0.357,0.84,0.557,1.344,0.557s0.986-0.199,1.344-0.557l2.262-2.262C84.74,43.393,82.717,45.128,80.209,45.128z"/>
		<linearGradient id="SVGID_5_" gradientUnits="userSpaceOnUse" x1="10.8857" y1="-2.9937" x2="10.8857" y2="115.2988">
			<stop  offset="0" style="stop-color:#FFFFFF"/>
			<stop  offset="1" style="stop-color:#000000"/>
		</linearGradient>
		<path fill="url(#SVGID_5_)" d="M15.051,55.788c-1.42,0-2.693-0.18-3.787-0.531c-1.232-0.398-2.283-1.061-3.129-1.971
			c-0.83-0.9-1.445-2.051-1.836-3.43c-0.355-1.235-0.537-2.759-0.537-4.517V33.963c-0.113-0.862-0.277-1.104-0.279-1.106
			c-0.139-0.191-0.236-0.241-0.328-0.272c-0.303-0.104-0.68-0.158-1.096-0.158c-0.482-0.012-0.918-0.041-1.377-0.09
			C1.156,32.172,0,30.886,0,29.353v-2.875c0-1.547,1.176-2.84,2.717-2.986C3,23.464,3.275,23.446,3.541,23.438
			c0.443-0.016,0.828-0.048,1.154-0.099c0.311-0.046,0.5-0.116,0.609-0.168c0.064-0.14,0.189-0.368,0.307-0.926
			c0.098-0.497,0.15-1.205,0.15-2.086v-9.709c0-1.739,0.182-3.259,0.537-4.517c0.391-1.378,1.006-2.53,1.832-3.425
			c0.854-0.92,1.908-1.582,3.137-1.977C12.363,0.18,13.637,0,15.051,0c0.797,0,1.5,0.019,2.113,0.05
			c0.578,0.02,1.1,0.044,1.527,0.077l0.312,0.022c1.561,0.121,2.768,1.425,2.768,2.991v5.584c0,1.523-1.143,2.805-2.654,2.98
			c-0.332,0.038-0.535,0.083-0.648,0.115c-0.059,0.015-0.098,0.026-0.125,0.035c-0.006,0.021-0.012,0.047-0.018,0.078
			c-0.039,0.229-0.09,0.683-0.09,1.421v9.927c0,0.633-0.049,1.233-0.145,1.785c-0.104,0.666-0.297,1.266-0.592,1.83
			c-0.178,0.341-0.398,0.67-0.66,0.981c0.285,0.354,0.529,0.745,0.727,1.17c0.283,0.622,0.467,1.266,0.557,1.937
			c0.074,0.539,0.113,1.123,0.113,1.716v8.983c0,0.893,0.053,1.42,0.096,1.706c0.006,0.034,0.014,0.062,0.02,0.087
			c0.018,0.005,0.039,0.012,0.064,0.018c0.168,0.041,0.395,0.078,0.666,0.105c1.527,0.159,2.689,1.447,2.689,2.984v6.087
			c0,1.564-1.201,2.865-2.758,2.99l-0.342,0.025c-0.402,0.035-0.936,0.061-1.564,0.076C16.521,55.78,15.83,55.788,15.051,55.788z"/>
		<linearGradient id="SVGID_6_" gradientUnits="userSpaceOnUse" x1="180.1045" y1="-2.9937" x2="180.1045" y2="115.2988">
			<stop  offset="0" style="stop-color:#FFFFFF"/>
			<stop  offset="1" style="stop-color:#000000"/>
		</linearGradient>
		<path fill="url(#SVGID_6_)" d="M175.941,55.788c-0.781,0-1.473-0.008-2.072-0.025c-0.617-0.016-1.148-0.041-1.586-0.078
			l-0.293-0.021c-1.562-0.119-2.771-1.424-2.771-2.992v-6.087c0-1.537,1.162-2.825,2.689-2.984c0.275-0.028,0.502-0.064,0.676-0.106
			c0.021-0.005,0.039-0.011,0.055-0.016c0.006-0.026,0.014-0.061,0.02-0.103c0.043-0.272,0.098-0.801,0.098-1.691V32.7
			c0-0.588,0.037-1.166,0.113-1.721c0.092-0.688,0.273-1.319,0.553-1.926c0.193-0.418,0.438-0.811,0.73-1.173
			c-0.26-0.311-0.48-0.64-0.662-0.985c-0.295-0.565-0.496-1.188-0.594-1.844c-0.09-0.496-0.141-1.104-0.141-1.771v-9.927
			c0-0.736-0.051-1.182-0.094-1.425c-0.004-0.03-0.01-0.055-0.014-0.074c-0.018-0.006-0.133-0.036-0.166-0.046
			c-0.082-0.022-0.268-0.067-0.604-0.105c-1.516-0.174-2.66-1.456-2.66-2.98V3.141c0-1.576,1.221-2.884,2.793-2.993l0.236-0.017
			c0.48-0.037,0.998-0.062,1.613-0.083C174.443,0.019,175.146,0,175.941,0c1.412,0,2.686,0.18,3.785,0.535
			c1.227,0.393,2.281,1.057,3.129,1.971c0.826,0.893,1.443,2.045,1.836,3.425c0.357,1.258,0.537,2.777,0.537,4.521v9.709
			c0,0.888,0.053,1.592,0.154,2.092c0.107,0.533,0.24,0.783,0.291,0.866l0.059,0.084c0.066,0.023,0.252,0.092,0.541,0.134
			c0.35,0.055,0.736,0.087,1.186,0.103c0.266,0.009,0.543,0.025,0.826,0.054c1.535,0.152,2.705,1.443,2.705,2.985v2.875
			c0,1.534-1.158,2.821-2.684,2.983c-0.461,0.049-0.902,0.078-1.324,0.089c-0.477,0.001-0.844,0.056-1.143,0.158
			c-0.1,0.034-0.193,0.083-0.314,0.249c-0.027,0.039-0.193,0.3-0.297,1.118v11.39c0,1.764-0.182,3.286-0.539,4.524
			c-0.387,1.369-1.006,2.525-1.834,3.42c-0.842,0.908-1.895,1.572-3.127,1.973C178.631,55.608,177.357,55.788,175.941,55.788z"/>
	</g>
	<g>
		<path fill="#0C5CA8" d="M44.42,13.931c0.135-0.141,0.26-0.285,0.379-0.438c0.352-0.455,0.623-0.965,0.812-1.531
			c0.066-0.19,0.123-0.383,0.172-0.581c0.049-0.197,0.09-0.397,0.123-0.601c0.033-0.206,0.059-0.412,0.074-0.625
			c0.018-0.209,0.025-0.424,0.025-0.641c0-0.361-0.041-0.714-0.123-1.062c-0.041-0.173-0.092-0.345-0.154-0.515
			c-0.061-0.168-0.133-0.336-0.215-0.502s-0.172-0.328-0.271-0.484c-0.293-0.469-0.658-0.893-1.094-1.273
			c-0.582-0.51-1.275-0.912-2.078-1.206c-0.201-0.075-0.408-0.143-0.617-0.2c-0.424-0.113-0.863-0.189-1.324-0.227
			c-0.23-0.02-0.465-0.029-0.703-0.029h-8.611v3.383h1.932v11.894h-1.932v3.37h7.725v-3.37H36.83v-3.556h2.596
			c0.564,0,1.094-0.039,1.582-0.119c0.49-0.08,0.943-0.201,1.357-0.361c0.207-0.082,0.404-0.17,0.594-0.268
			C43.527,14.702,44.014,14.349,44.42,13.931z M41.551,10.255c-0.023,0.297-0.088,0.563-0.191,0.796
			c-0.035,0.079-0.074,0.153-0.117,0.226c-0.129,0.212-0.295,0.391-0.5,0.538c-0.275,0.196-0.6,0.345-0.971,0.442
			c-0.369,0.1-0.789,0.148-1.256,0.148H36.83V7.399h1.686c0.25,0,0.484,0.014,0.705,0.043c0.219,0.027,0.424,0.069,0.613,0.125
			c0.189,0.057,0.363,0.128,0.523,0.213c0.08,0.043,0.154,0.088,0.227,0.137c0.072,0.051,0.143,0.102,0.207,0.16
			c0.064,0.055,0.123,0.113,0.182,0.176c0.055,0.062,0.109,0.125,0.156,0.191c0.049,0.068,0.094,0.139,0.133,0.213
			c0.082,0.144,0.146,0.299,0.193,0.465c0.025,0.083,0.045,0.17,0.062,0.259c0.016,0.089,0.027,0.181,0.035,0.274
			c0.008,0.095,0.012,0.191,0.012,0.291C41.564,10.052,41.561,10.154,41.551,10.255z"/>
		<g>
			<path fill="#010101" enable-background="new    " d="M56.48,4.017h-4.936l-5.078,15.276h-1.389v3.37h7.07v-3.37h-1.967
				l0.836-2.683h5.732l0.834,2.683h-1.855v3.37h7.072v-3.37h-1.354L56.48,4.017z M51.99,13.462l1.869-6.062l1.893,6.062H51.99z"/>
			<path fill="#010101" enable-background="new    " d="M160.15,19.034h-1.535l-0.627-2.424c-0.084-0.349-0.186-0.662-0.305-0.945
				c-0.123-0.283-0.264-0.534-0.424-0.752c-0.078-0.109-0.162-0.213-0.248-0.31s-0.176-0.187-0.266-0.269
				c-0.094-0.081-0.189-0.156-0.289-0.223c-0.098-0.068-0.197-0.129-0.303-0.182c0.482-0.23,0.914-0.484,1.291-0.762
				c0.283-0.216,0.531-0.455,0.744-0.717c0.072-0.087,0.141-0.176,0.203-0.268c0.197-0.277,0.355-0.584,0.48-0.92
				c0.041-0.113,0.078-0.229,0.109-0.348c0.035-0.117,0.066-0.242,0.092-0.372c0.027-0.128,0.049-0.261,0.066-0.399
				c0.035-0.276,0.053-0.574,0.053-0.89c0-0.687-0.141-1.349-0.42-1.981c-0.066-0.158-0.143-0.312-0.225-0.463
				c-0.084-0.149-0.174-0.293-0.273-0.433c-0.098-0.14-0.203-0.274-0.318-0.403c-0.113-0.129-0.234-0.252-0.363-0.372
				c-0.518-0.483-1.152-0.868-1.906-1.156c-0.189-0.071-0.385-0.134-0.586-0.188c-0.402-0.108-0.832-0.18-1.285-0.216
				c-0.227-0.018-0.459-0.027-0.701-0.027h-9.863v3.383h1.932v11.894h-1.932v3.37h7.723v-3.37h-1.709v-4.06h1.588
				c0.498,0,0.93,0.059,1.291,0.172c0.277,0.086,0.521,0.209,0.732,0.369c0.07,0.053,0.139,0.111,0.201,0.172
				c0.064,0.059,0.125,0.125,0.184,0.193c0.055,0.069,0.109,0.141,0.158,0.219c0.051,0.078,0.098,0.16,0.141,0.248
				s0.084,0.178,0.121,0.275c0.156,0.377,0.27,0.828,0.346,1.354l0.738,4.428h5.41L160.15,19.034z M154.75,9.967
				c-0.01,0.089-0.021,0.175-0.041,0.258c-0.037,0.167-0.094,0.317-0.166,0.458c-0.037,0.068-0.074,0.137-0.117,0.201
				c-0.084,0.128-0.189,0.244-0.307,0.351c-0.061,0.052-0.125,0.103-0.191,0.149c-0.262,0.18-0.582,0.316-0.957,0.406
				c-0.371,0.083-0.789,0.122-1.256,0.122h-2.449V7.399h2.449c0.25,0,0.484,0.014,0.705,0.037c0.328,0.037,0.625,0.104,0.887,0.197
				c0.086,0.031,0.17,0.066,0.25,0.104s0.154,0.08,0.229,0.123c0.072,0.045,0.141,0.091,0.203,0.142
				c0.195,0.15,0.354,0.323,0.473,0.521c0.121,0.194,0.207,0.412,0.256,0.654c0.033,0.158,0.049,0.329,0.049,0.51
				C154.766,9.784,154.76,9.876,154.75,9.967z"/>
			<polygon fill="#010101" enable-background="new    " points="126.277,7.73 128.234,7.73 128.234,19.293 126.277,19.293 
				126.277,22.663 141.113,22.663 141.113,15.985 137.102,15.985 137.102,19.293 132.318,19.293 132.318,14.976 136.02,14.976 
				136.02,11.409 132.318,11.409 132.318,7.73 137.102,7.73 137.102,10.376 141.113,10.376 141.113,4.017 126.277,4.017 			"/>
			<polygon fill="#010101" enable-background="new    " points="115.492,7.399 117.436,7.399 117.436,11.274 109.023,11.274 
				109.023,7.399 110.99,7.399 110.99,4.017 103.008,4.017 103.008,7.399 104.939,7.399 104.939,19.293 103.008,19.293 
				103.008,22.663 110.99,22.663 110.99,19.293 109.023,19.293 109.023,14.52 117.436,14.52 117.436,19.293 115.492,19.293 
				115.492,22.663 123.484,22.663 123.484,19.293 121.52,19.293 121.52,7.399 123.484,7.399 123.484,4.017 115.492,4.017 			"/>
			<polygon fill="#010101" enable-background="new    " points="84.252,9.687 88.262,9.687 88.262,7.274 90.523,7.274 
				90.523,19.293 88.594,19.293 88.594,22.663 96.576,22.663 96.576,19.293 94.607,19.293 94.607,7.274 97.176,7.274 97.176,9.687 
				101.213,9.687 101.213,4.017 84.252,4.017 			"/>
			<polygon fill="#010101" enable-background="new    " points="76.27,7.399 77.855,7.399 77.855,16.229 70.143,4.017 64.512,4.017 
				64.512,7.399 66.023,7.399 66.023,19.293 64.486,19.293 64.486,22.663 71.559,22.663 71.559,19.293 69.996,19.293 69.996,10.61 
				77.758,22.663 81.842,22.663 81.842,7.399 83.352,7.399 83.352,4.017 76.27,4.017 			"/>
		</g>
	</g>
	<g>
		<path fill="#010101" enable-background="new    " d="M60.963,30.354h-5l-5.15,15.486h-1.408v3.416h7.17v-3.416h-1.996l0.85-2.719
			h5.811l0.848,2.719h-1.885v3.416h7.17v-3.416H66L60.963,30.354z M56.412,39.929l1.895-6.146l1.92,6.146H56.412z"/>
		<polygon fill="#0C5CA8" points="39.543,33.782 41.512,33.782 41.512,37.71 32.984,37.71 32.984,33.782 34.979,33.782 
			34.979,30.354 26.887,30.354 26.887,33.782 28.846,33.782 28.846,45.841 26.887,45.841 26.887,49.257 34.979,49.257 
			34.979,45.841 32.984,45.841 32.984,41.003 41.512,41.003 41.512,45.841 39.543,45.841 39.543,49.257 47.646,49.257 
			47.646,45.841 45.65,45.841 45.65,33.782 47.646,33.782 47.646,30.354 39.543,30.354 		"/>
		<polygon fill="#010101" enable-background="new    " points="114.193,34.118 116.178,34.118 116.178,45.841 114.193,45.841 
			114.193,49.257 129.23,49.257 129.23,42.486 125.166,42.486 125.166,45.841 120.316,45.841 120.316,41.463 124.07,41.463 
			124.07,37.849 120.316,37.849 120.316,34.118 125.166,34.118 125.166,36.801 129.23,36.801 129.23,30.354 114.193,30.354 		"/>
		<path fill="#010101" enable-background="new    " d="M164.104,36.775v-3.765h-1.246c-0.191-0.416-0.469-0.816-0.836-1.197
			c-0.088-0.099-0.182-0.193-0.281-0.284c-0.102-0.092-0.207-0.181-0.316-0.269c-0.111-0.086-0.227-0.169-0.346-0.25
			c-0.119-0.079-0.246-0.158-0.377-0.232c-0.129-0.074-0.264-0.146-0.398-0.212c-0.277-0.136-0.57-0.253-0.881-0.356
			c-0.154-0.051-0.314-0.1-0.479-0.143c-0.164-0.046-0.334-0.085-0.504-0.119c-0.172-0.035-0.348-0.064-0.525-0.087
			c-0.357-0.044-0.73-0.067-1.115-0.067c-0.98,0-1.883,0.125-2.705,0.373c-0.824,0.251-1.535,0.615-2.133,1.098
			c-0.449,0.361-0.822,0.786-1.121,1.274c-0.102,0.163-0.193,0.333-0.275,0.509c-0.084,0.174-0.156,0.355-0.219,0.543
			c-0.186,0.561-0.279,1.178-0.279,1.852c0,0.578,0.062,1.111,0.188,1.599c0.043,0.163,0.092,0.319,0.148,0.47
			s0.121,0.295,0.189,0.436c0.135,0.281,0.287,0.543,0.461,0.787c0.086,0.12,0.176,0.236,0.271,0.35
			c0.195,0.225,0.404,0.43,0.627,0.617c0.111,0.094,0.227,0.182,0.344,0.266s0.238,0.166,0.363,0.239
			c0.506,0.3,1.031,0.532,1.572,0.698l2.854,0.924c0.26,0.082,0.521,0.174,0.785,0.273c0.268,0.099,0.51,0.224,0.727,0.373
			c0.215,0.142,0.389,0.32,0.521,0.536c0.143,0.207,0.211,0.47,0.211,0.786c0,0.154-0.012,0.299-0.035,0.437
			c-0.025,0.138-0.061,0.266-0.109,0.387c-0.049,0.12-0.111,0.231-0.184,0.335c-0.074,0.104-0.16,0.201-0.256,0.287
			c-0.393,0.342-0.961,0.514-1.709,0.514c-0.246,0-0.475-0.018-0.688-0.051c-0.109-0.014-0.211-0.033-0.311-0.057
			c-0.098-0.023-0.195-0.05-0.285-0.081c-0.092-0.034-0.18-0.069-0.264-0.11c-0.252-0.117-0.467-0.265-0.646-0.438
			c-0.121-0.117-0.227-0.245-0.318-0.382s-0.168-0.282-0.23-0.442c-0.059-0.158-0.104-0.324-0.131-0.496
			c-0.031-0.172-0.045-0.353-0.045-0.539v-0.772h-4.514v3.753h1.285c0.111,0.27,0.246,0.527,0.402,0.77
			c0.156,0.244,0.332,0.474,0.533,0.688c0.199,0.213,0.416,0.41,0.646,0.592c0.234,0.184,0.484,0.354,0.75,0.507
			c0.133,0.076,0.27,0.148,0.408,0.215c0.141,0.07,0.283,0.131,0.428,0.188c0.148,0.059,0.299,0.113,0.451,0.162
			c0.154,0.049,0.309,0.094,0.469,0.133c0.648,0.168,1.334,0.25,2.059,0.25c0.258,0,0.51-0.01,0.758-0.029
			c0.244-0.018,0.484-0.045,0.719-0.082c0.471-0.076,0.916-0.188,1.342-0.338c0.424-0.15,0.816-0.33,1.182-0.541
			c0.182-0.103,0.355-0.216,0.521-0.333c0.168-0.121,0.328-0.25,0.479-0.385c0.303-0.27,0.572-0.568,0.807-0.894
			c0.234-0.323,0.436-0.674,0.602-1.053c0.342-0.756,0.512-1.592,0.512-2.506c0-0.168-0.004-0.333-0.016-0.492
			c-0.021-0.32-0.066-0.623-0.131-0.91c-0.033-0.143-0.072-0.282-0.115-0.418c-0.088-0.27-0.191-0.523-0.312-0.763
			c-0.119-0.241-0.256-0.462-0.41-0.671c-0.299-0.416-0.658-0.769-1.074-1.059c-0.104-0.075-0.209-0.143-0.314-0.209
			c-0.324-0.194-0.664-0.354-1.02-0.477l-3.428-1.148c-0.291-0.1-0.59-0.191-0.896-0.274c-0.154-0.042-0.303-0.091-0.443-0.146
			c-0.141-0.057-0.277-0.121-0.406-0.191c-0.125-0.071-0.238-0.15-0.342-0.239c-0.104-0.09-0.199-0.189-0.281-0.297
			c-0.039-0.058-0.074-0.116-0.104-0.183c-0.029-0.064-0.055-0.136-0.072-0.211c-0.041-0.148-0.061-0.318-0.061-0.504
			c0-0.15,0.014-0.291,0.043-0.418c0.014-0.064,0.031-0.127,0.055-0.185c0.023-0.06,0.047-0.116,0.076-0.171
			c0.125-0.217,0.287-0.391,0.486-0.523c0.105-0.07,0.215-0.133,0.338-0.185c0.119-0.053,0.248-0.093,0.385-0.128
			c0.139-0.032,0.281-0.057,0.428-0.073s0.301-0.026,0.459-0.026c0.348,0,0.682,0.055,0.998,0.162
			c0.324,0.107,0.609,0.26,0.859,0.449c0.129,0.092,0.246,0.191,0.35,0.303c0.104,0.109,0.195,0.229,0.275,0.357
			c0.164,0.258,0.27,0.533,0.311,0.824v1.097H164.104z"/>
		<path fill="#010101" enable-background="new    " d="M146.975,45.577l-0.637-2.455c-0.041-0.178-0.088-0.346-0.141-0.507
			c-0.104-0.317-0.225-0.605-0.367-0.858c-0.072-0.127-0.146-0.245-0.229-0.354c-0.082-0.114-0.166-0.219-0.252-0.315
			c-0.176-0.195-0.361-0.361-0.561-0.5c-0.1-0.067-0.203-0.129-0.309-0.183c0.488-0.233,0.926-0.491,1.309-0.774
			c0.285-0.218,0.537-0.459,0.754-0.724c0.074-0.088,0.141-0.18,0.205-0.272c0.133-0.188,0.25-0.387,0.35-0.603
			c0.051-0.106,0.096-0.217,0.137-0.331c0.041-0.113,0.08-0.23,0.113-0.351c0.035-0.122,0.064-0.247,0.092-0.377
			c0.08-0.39,0.119-0.827,0.119-1.308c0-0.174-0.008-0.346-0.025-0.517c-0.018-0.172-0.045-0.341-0.08-0.509
			c-0.07-0.334-0.176-0.661-0.318-0.98c-0.068-0.162-0.145-0.32-0.229-0.471c-0.084-0.153-0.178-0.299-0.277-0.439
			c-0.197-0.283-0.428-0.545-0.691-0.787c-0.129-0.121-0.268-0.238-0.414-0.348c-0.438-0.33-0.943-0.605-1.518-0.822
			c-0.764-0.291-1.633-0.438-2.605-0.438h-10v3.428h1.957v12.059H131.4v3.416h7.83v-3.416h-1.732v-4.115h1.607
			c0.254,0,0.49,0.015,0.709,0.044c0.217,0.029,0.418,0.071,0.602,0.13c0.186,0.059,0.357,0.135,0.516,0.227
			c0.158,0.091,0.303,0.198,0.43,0.322c0.066,0.061,0.127,0.127,0.184,0.195c0.059,0.07,0.113,0.145,0.164,0.223
			s0.1,0.163,0.143,0.25c0.045,0.09,0.084,0.183,0.123,0.28c0.156,0.382,0.273,0.839,0.348,1.37l0.748,4.49h5.486l-0.023-3.68
			H146.975z M143.057,36.385c-0.01,0.091-0.023,0.179-0.043,0.263c-0.037,0.168-0.094,0.323-0.168,0.465
			c-0.068,0.143-0.158,0.27-0.262,0.389s-0.223,0.227-0.361,0.321c-0.133,0.093-0.281,0.172-0.441,0.241
			c-0.162,0.068-0.338,0.125-0.529,0.17c-0.375,0.084-0.799,0.125-1.273,0.125h-2.48v-4.576l0,0l0,0h2.48
			c0.254,0,0.492,0.014,0.715,0.039s0.432,0.062,0.623,0.114c0.098,0.026,0.188,0.054,0.275,0.087
			c0.178,0.062,0.338,0.141,0.486,0.229c0.072,0.044,0.143,0.091,0.207,0.142c0.064,0.052,0.127,0.104,0.186,0.16
			c0.17,0.169,0.307,0.357,0.404,0.572c0.031,0.072,0.061,0.146,0.086,0.222c0.023,0.077,0.045,0.155,0.061,0.237
			c0.018,0.08,0.027,0.165,0.037,0.25c0.008,0.087,0.012,0.176,0.012,0.268C143.07,36.2,143.066,36.294,143.057,36.385z"/>
		<polygon fill="#010101" enable-background="new    " points="105.689,34.009 99.645,39.28 99.645,33.782 101.639,33.782 
			101.639,30.354 93.547,30.354 93.547,33.782 95.506,33.782 95.506,45.841 93.547,45.841 93.547,49.257 101.639,49.257 
			101.639,45.841 99.645,45.841 99.645,39.469 105.729,45.554 105.729,49.257 112,49.257 112,45.554 110.467,45.554 104.432,39.444 
			110.729,34.032 112.137,34.032 112.137,30.354 105.689,30.354 		"/>
	</g>
	<path id="path4329_2_" inkscape:connector-curvature="0" fill="#0C5CA8" d="M89.035,27.966L78.312,38.687l3.266,3.268L92.299,31.23
		L89.035,27.966z M80.209,28.467c-6.373,0-11.59,5.216-11.59,11.591c0,6.373,5.217,11.588,11.59,11.588s11.59-5.215,11.59-11.588
		H87.18c0,3.876-3.094,6.971-6.971,6.971s-6.973-3.095-6.973-6.971c0-3.878,3.096-6.972,6.973-6.972V28.467z"/>
	<path fill="#0C5CA8" d="M15.051,52.788c-1.105,0-2.07-0.131-2.867-0.387c-0.746-0.242-1.352-0.621-1.85-1.156
		c-0.502-0.543-0.889-1.287-1.148-2.207c-0.281-0.979-0.424-2.222-0.424-3.698V33.779l-0.006-0.057
		c-0.135-1.19-0.42-2.061-0.869-2.662c-0.451-0.624-1.047-1.071-1.762-1.315c-0.615-0.212-1.312-0.319-2.066-0.319
		C3.73,29.417,3.375,29.393,3,29.353v-2.875c0.217-0.021,0.426-0.034,0.629-0.04c0.578-0.021,1.076-0.063,1.527-0.134
		c0.523-0.076,1.01-0.22,1.439-0.425c0.514-0.242,0.943-0.641,1.271-1.184c0.297-0.47,0.523-1.077,0.682-1.841
		c0.145-0.724,0.213-1.603,0.213-2.694v-9.709c0-1.464,0.143-2.709,0.424-3.7c0.26-0.921,0.648-1.663,1.15-2.207
		c0.498-0.536,1.102-0.915,1.848-1.154C12.986,3.131,13.951,3,15.051,3c0.738,0,1.391,0.017,1.959,0.046
		c0.58,0.02,1.059,0.042,1.451,0.072c0.105,0.008,0.209,0.015,0.311,0.022v5.584c-0.422,0.049-0.787,0.116-1.107,0.205
		c-0.615,0.152-1.139,0.445-1.527,0.863c-0.389,0.407-0.648,0.955-0.766,1.62c-0.09,0.53-0.135,1.181-0.135,1.941v9.927
		c0,0.475-0.035,0.911-0.105,1.299c-0.053,0.354-0.148,0.654-0.289,0.925c-0.139,0.268-0.344,0.523-0.609,0.763
		c-0.264,0.229-0.646,0.463-1.123,0.681l-2.082,0.95l2.111,0.882c0.459,0.191,0.824,0.42,1.086,0.682
		c0.279,0.268,0.479,0.541,0.623,0.852c0.148,0.326,0.25,0.687,0.301,1.063c0.059,0.428,0.088,0.87,0.088,1.323v8.983
		c0,0.868,0.045,1.595,0.131,2.161c0.119,0.715,0.379,1.282,0.777,1.699c0.381,0.408,0.902,0.701,1.545,0.861
		c0.311,0.076,0.668,0.136,1.082,0.179v6.087c-0.098,0.008-0.195,0.016-0.299,0.021c-0.408,0.035-0.881,0.057-1.438,0.07
		C16.457,52.78,15.795,52.788,15.051,52.788z"/>
	<path fill="#0C5CA8" d="M175.941,52.788c-0.746,0-1.406-0.008-1.98-0.025c-0.562-0.014-1.033-0.035-1.42-0.068
		c-0.111-0.008-0.219-0.016-0.322-0.023v-6.087c0.414-0.043,0.77-0.102,1.078-0.177c0.643-0.16,1.164-0.452,1.557-0.867
		c0.396-0.425,0.654-0.991,0.768-1.687c0.09-0.572,0.135-1.301,0.135-2.17V32.7c0-0.456,0.029-0.899,0.086-1.317
		c0.053-0.393,0.152-0.742,0.305-1.072c0.143-0.309,0.34-0.58,0.605-0.833c0.279-0.278,0.643-0.507,1.098-0.697l2.119-0.881
		l-2.088-0.952c-0.473-0.216-0.859-0.45-1.145-0.695c-0.244-0.225-0.449-0.481-0.586-0.745c-0.143-0.271-0.238-0.571-0.285-0.895
		c-0.074-0.413-0.109-0.85-0.109-1.331v-9.927c0-0.762-0.047-1.414-0.137-1.938c-0.111-0.653-0.367-1.201-0.762-1.624
		c-0.396-0.421-0.92-0.713-1.561-0.87c-0.301-0.085-0.66-0.151-1.078-0.199V3.141c0.1-0.007,0.201-0.015,0.307-0.022
		c0.396-0.03,0.873-0.053,1.439-0.072C174.549,3.017,175.201,3,175.941,3c1.098,0,2.062,0.131,2.863,0.39
		c0.748,0.239,1.352,0.617,1.848,1.154c0.504,0.544,0.893,1.286,1.154,2.207c0.279,0.988,0.422,2.233,0.422,3.7v9.709
		c0,1.104,0.07,1.985,0.215,2.692c0.15,0.741,0.381,1.366,0.688,1.855c0.324,0.531,0.752,0.93,1.268,1.173
		c0.424,0.203,0.912,0.347,1.445,0.424c0.441,0.069,0.939,0.112,1.514,0.132c0.205,0.007,0.416,0.02,0.633,0.041v2.875
		c-0.377,0.04-0.74,0.064-1.084,0.073c-0.002,0-0.002,0-0.004,0c-0.727,0-1.422,0.108-2.037,0.32
		c-0.711,0.24-1.309,0.688-1.771,1.329c-0.441,0.588-0.727,1.46-0.859,2.649l-0.006,0.111V45.34c0,1.48-0.141,2.723-0.422,3.692
		c-0.262,0.926-0.648,1.67-1.152,2.213c-0.496,0.537-1.102,0.914-1.85,1.156C178.01,52.657,177.045,52.788,175.941,52.788z"/>
</g>
</svg>
