<?xml version="1.0" encoding="utf-8"?>
<!-- Generator: Adobe Illustrator 16.0.0, SVG Export Plug-In . SVG Version: 6.00 Build 0)  -->
<!DOCTYPE svg PUBLIC "-//W3C//DTD SVG 1.1//EN" "http://www.w3.org/Graphics/SVG/1.1/DTD/svg11.dtd">
<svg version="1.1" id="Layer_1" xmlns="http://www.w3.org/2000/svg" xmlns:xlink="http://www.w3.org/1999/xlink" x="0px" y="0px"
	 width="123.99px" height="24.92px" viewBox="0 0 123.99 24.92" enable-background="new 0 0 123.99 24.92" xml:space="preserve">
<g>
	<linearGradient id="SVGID_1_" gradientUnits="userSpaceOnUse" x1="9.6338" y1="-6.0664" x2="9.6338" y2="44.3046">
		<stop  offset="0" style="stop-color:#FFFFFF"/>
		<stop  offset="1" style="stop-color:#000000"/>
	</linearGradient>
	<polygon fill="url(#SVGID_1_)" points="0,24.74 0,21.383 14.614,21.383 0.107,3.248 0.107,0.18 18.871,0.18 18.871,3.535 
		4.27,3.535 19.268,21.676 19.268,24.74 	"/>
	<linearGradient id="SVGID_2_" gradientUnits="userSpaceOnUse" x1="43.2568" y1="-6.0664" x2="43.2568" y2="44.3046">
		<stop  offset="0" style="stop-color:#FFFFFF"/>
		<stop  offset="1" style="stop-color:#000000"/>
	</linearGradient>
	<polygon fill="url(#SVGID_2_)" points="34.883,24.74 34.883,21.383 47.662,21.383 47.662,13.725 36.898,13.725 36.898,10.691 
		47.662,10.691 47.662,3.535 35.207,3.535 35.207,0.18 51.631,0.18 51.631,24.74 	"/>
	<linearGradient id="SVGID_3_" gradientUnits="userSpaceOnUse" x1="77.5488" y1="-6.0664" x2="77.5488" y2="44.3046">
		<stop  offset="0" style="stop-color:#FFFFFF"/>
		<stop  offset="1" style="stop-color:#000000"/>
	</linearGradient>
	<path fill="url(#SVGID_3_)" d="M83.303,24.74v-8.568H77.63l-5.365,8.568h-4.437l5.844-9.345l-0.539-0.229
		c-1.312-0.556-2.366-1.476-3.134-2.734c-0.775-1.27-1.169-2.701-1.169-4.257c0-0.966,0.193-1.938,0.575-2.893
		c0.385-0.96,0.924-1.831,1.602-2.588c0.673-0.751,1.487-1.366,2.422-1.829c0.922-0.455,1.944-0.687,3.038-0.687H87.27V24.74H83.303
		z M76.789,3.535c-0.503,0-1.006,0.12-1.495,0.356c-0.479,0.234-0.908,0.565-1.274,0.984c-0.36,0.416-0.651,0.908-0.865,1.465
		c-0.213,0.56-0.32,1.177-0.32,1.835c0,0.627,0.094,1.225,0.277,1.777c0.186,0.556,0.442,1.048,0.763,1.462
		c0.328,0.424,0.726,0.766,1.18,1.016c0.474,0.256,0.984,0.386,1.521,0.386h6.729V3.535H76.789z"/>
	<linearGradient id="SVGID_4_" gradientUnits="userSpaceOnUse" x1="112.3584" y1="-6.0757" x2="112.3584" y2="44.3219">
		<stop  offset="0" style="stop-color:#FFFFFF"/>
		<stop  offset="1" style="stop-color:#000000"/>
	</linearGradient>
	<path fill="url(#SVGID_4_)" d="M112.322,24.92c-1.715,0-3.3-0.352-4.711-1.046c-1.42-0.699-2.658-1.641-3.68-2.799
		c-1.023-1.161-1.821-2.507-2.373-4c-0.552-1.496-0.832-3.049-0.832-4.616c0-1.63,0.297-3.216,0.884-4.712
		c0.586-1.495,1.413-2.837,2.461-3.986c1.045-1.148,2.295-2.072,3.714-2.747C109.197,0.341,110.76,0,112.43,0
		c1.714,0,3.298,0.363,4.707,1.078c1.427,0.729,2.659,1.688,3.662,2.852c1.013,1.174,1.806,2.526,2.359,4.023
		c0.552,1.495,0.832,3.036,0.832,4.578c0,1.636-0.297,3.216-0.883,4.695c-0.587,1.485-1.409,2.814-2.442,3.95
		c-1.032,1.136-2.276,2.054-3.698,2.729C115.555,24.579,113.992,24.92,112.322,24.92z M112.359,3.428
		c-1.233,0-2.339,0.27-3.288,0.803c-0.928,0.521-1.73,1.219-2.385,2.075c-0.647,0.853-1.14,1.825-1.466,2.895
		c-0.325,1.062-0.49,2.158-0.49,3.259c0,1.151,0.171,2.28,0.51,3.355c0.341,1.085,0.841,2.059,1.485,2.892
		c0.652,0.844,1.462,1.531,2.407,2.042c0.954,0.518,2.052,0.779,3.262,0.779c1.233,0,2.339-0.27,3.288-0.803
		c0.934-0.522,1.731-1.229,2.371-2.101c0.631-0.859,1.117-1.836,1.444-2.903c0.324-1.065,0.488-2.162,0.488-3.262
		c0-1.151-0.178-2.281-0.528-3.358c-0.352-1.079-0.856-2.05-1.502-2.887c-0.652-0.845-1.458-1.526-2.393-2.026
		C114.618,3.684,113.54,3.428,112.359,3.428z"/>
</g>
</svg>
